<?xml version="1.0" encoding="utf-8"?>
<!-- Generator: Adobe Illustrator 19.0.0, SVG Export Plug-In . SVG Version: 6.00 Build 0)  -->
<svg version="1.1" xmlns="http://www.w3.org/2000/svg" xmlns:xlink="http://www.w3.org/1999/xlink" x="0px" y="0px"
	 viewBox="0 0 2560 593.5" style="enable-background:new 0 0 2560 593.5;" xml:space="preserve">
<style type="text/css">
	.st0{display:none;}
	.st1{display:inline;}
	.st2{display:inline;fill:#FFFFFF;}
	.st3{fill:#FFFFFF;}
</style>
<g id="BG" class="st0">
	<rect id="XMLID_1_" class="st1" width="2560" height="1440"/>
	<g id="XMLID_4_">
		<path id="XMLID_38_" class="st2" d="M742.2,681.3l-13.5-8.3l12.7-7.8c3.6-2.2,6.1-4.6,7.7-7.3c1.5-2.7,2.3-6.5,2.3-11.3v-53
			c0-12.6-6.1-18.8-18.3-18.8h-81.6v205.7h82.1c12.6,0,18.8-6.3,18.8-18.8v-61.1c0-4.8-0.8-8.7-2.4-11.6
			C748.3,686,745.7,683.5,742.2,681.3z M682.1,600.8h38.5v49.8l-14.8,10.5h-23.7V600.8z M721.4,754.3h-39.3v-68.6h24.2l15.1,10
			V754.3z"/>
		<path id="XMLID_49_" class="st2" d="M808.9,574.4l-39.8,205.4v0.5h30.4l6.2-39h38.5l6.2,39h30.4v-0.5l-39.6-205.4H808.9z
			 M809.7,715.2l15.1-92.9l15.1,92.9H809.7z"/>
		<polygon id="XMLID_50_" class="st2" points="889.1,601.9 922.8,601.9 922.8,780.4 953.5,780.4 953.5,601.9 987.4,601.9 
			987.4,574.7 889.1,574.7 		"/>
		<polygon id="XMLID_51_" class="st2" points="994.1,601.9 1027.8,601.9 1027.8,780.4 1058.5,780.4 1058.5,601.9 1092.4,601.9 
			1092.4,574.7 994.1,574.7 		"/>
		<polygon id="XMLID_52_" class="st2" points="1138.7,574.7 1108,574.7 1108,780.4 1188.8,780.4 1188.8,752.9 1138.7,752.9 		"/>
		<polygon id="XMLID_53_" class="st2" points="1237.7,688.6 1284,688.6 1284,661.9 1237.7,661.9 1237.7,601.9 1291.6,601.9 
			1291.6,574.7 1207.1,574.7 1207.1,780.4 1292.4,780.4 1292.4,753.2 1237.7,753.2 		"/>
		<polygon id="XMLID_54_" class="st2" points="1313.4,780.4 1344.1,780.4 1344.1,689.4 1389.6,689.4 1389.6,662.7 1344.1,662.7 
			1344.1,601.9 1397.4,601.9 1397.4,574.7 1313.4,574.7 		"/>
		<path id="XMLID_57_" class="st2" d="M1447.2,574.4l-39.8,205.4v0.5h30.4l6.2-39h38.5l6.2,39h30.4v-0.5l-39.6-205.4H1447.2z
			 M1448,715.2l15.1-92.9l15.1,92.9H1448z"/>
		<rect id="XMLID_58_" x="1536.8" y="574.7" class="st2" width="30.7" height="205.7"/>
		<polygon id="XMLID_59_" class="st2" points="1623.5,574.7 1592.8,574.7 1592.8,780.4 1673.6,780.4 1673.6,752.9 1623.5,752.9 		
			"/>
		<polygon id="XMLID_60_" class="st2" points="1722.6,688.6 1768.9,688.6 1768.9,661.9 1722.6,661.9 1722.6,601.9 1776.4,601.9 
			1776.4,574.7 1691.9,574.7 1691.9,780.4 1777.2,780.4 1777.2,753.2 1722.6,753.2 		"/>
		<path id="XMLID_63_" class="st2" d="M1890.3,585.3c-7-7.1-16.8-10.6-29.3-10.6h-62.7v205.7h62.7c12.4,0,22.1-3.5,29.2-10.5
			c7.1-7,10.6-16.4,10.6-28.3V613.7C1900.8,601.9,1897.3,592.4,1890.3,585.3z M1869.8,736.7c0,5.4-1.6,9.7-4.7,12.8
			c-3.1,3.2-7.9,4.7-14.1,4.7h-22.1V600.8h22.9c5.6,0,10,1.5,13.2,4.5s4.8,7.2,4.8,12.8V736.7z"/>
	</g>
	<g id="XMLID_2_">
		<rect id="XMLID_3_" x="1217.7" y="815" class="st2" width="9.7" height="35.1"/>
		<path id="XMLID_5_" class="st2" d="M651.6,797.6v68h1257v-68H651.6z M1205,856.1h-6.8v-23.2c0-0.5,0-1,0-1.5
			c0-0.6,0.1-1.1,0.2-1.7c0.1-0.6,0.2-1.3,0.2-1.9l-6.1,24h-3.6l-6.1-24c0,0.7,0.1,1.3,0.2,1.9c0.1,0.5,0.1,1.1,0.2,1.7
			c0,0.6,0.1,1.1,0.1,1.5v23.2h-6.8V809h6.7l7.4,26c0,0.1,0.1,0.3,0.1,0.5c0,0.2,0,0.5,0.1,0.7c0,0.3,0,0.6,0.1,0.9
			c0-0.3,0-0.6,0.1-0.9c0-0.5,0-0.9,0.1-1.2l7.4-26h6.7V856.1z M1234.4,851.8c0,1.4-0.4,2.5-1.1,3.2c-0.7,0.7-1.8,1.1-3.1,1.1h-15.3
			c-2.8,0-4.2-1.4-4.2-4.3v-38.5c0-2.9,1.4-4.3,4.2-4.3h15.3c1.4,0,2.4,0.4,3.1,1.1c0.7,0.7,1.1,1.8,1.1,3.2V851.8z M1268.5,856.1
			h-6.8v-23.2c0-0.5,0-1,0-1.5c0-0.6,0.1-1.1,0.2-1.7c0.1-0.6,0.2-1.3,0.2-1.9l-6.1,24h-3.6l-6.1-24c0,0.7,0.1,1.3,0.2,1.9
			c0.1,0.5,0.1,1.1,0.2,1.7c0,0.6,0.1,1.1,0.1,1.5v23.2h-6.8V809h6.7l7.4,26c0,0.1,0.1,0.3,0.1,0.5c0,0.2,0,0.5,0.1,0.7
			c0,0.3,0,0.6,0.1,0.9c0-0.3,0-0.6,0.1-0.9c0-0.5,0-0.9,0.1-1.2l7.4-26h6.7V856.1z M1293.7,856.1h-19.5V809h19.4v6.2h-12.3V829
			h10.6v6.1h-10.6v14.8h12.5V856.1z M1322.4,856.1h-6.1l-11.2-29.7c0,0.4,0.1,0.8,0.2,1.2c0.1,0.3,0.1,0.7,0.2,1.1s0.1,0.8,0.1,1.1
			v26.3h-6.9V809h6.1l11.2,29c-0.1-0.4-0.2-0.8-0.2-1.2c-0.1-0.3-0.1-0.7-0.2-1.1c0-0.4,0-0.8,0-1.1V809h6.9V856.1z M1348.5,815.3
			h-7.8v40.9h-7v-40.9h-7.7V809h22.5V815.3z M1374.6,823.9h-7V815h-8.6v8.5l14.1,13.3c0.6,0.6,1,1.1,1.2,1.7
			c0.2,0.5,0.3,1.3,0.3,2.2v11.2c0,1.4-0.4,2.5-1.1,3.2c-0.7,0.7-1.8,1.1-3.1,1.1h-14.2c-1.4,0-2.4-0.4-3.1-1.1
			c-0.7-0.7-1.1-1.8-1.1-3.2v-11.2h7v9.6h8.6v-9.2l-14.1-13.4c-0.6-0.5-1-1.1-1.2-1.6c-0.2-0.5-0.3-1.3-0.3-2.2v-10.5
			c0-1.4,0.4-2.5,1.1-3.2c0.7-0.7,1.8-1.1,3.1-1.1h14.2c1.4,0,2.4,0.4,3.1,1.1c0.7,0.7,1.1,1.8,1.1,3.2V823.9z"/>
	</g>
	<g id="XMLID_15_">
		<path id="XMLID_16_" class="st2" d="M742.3,811.1h-81.4V607h80.9c12.1,0,18.2,6.2,18.2,18.7v52.6c0,4.8-0.8,8.5-2.3,11.2
			c-1.5,2.7-4.1,5.1-7.6,7.2l-12.6,7.7l13.4,8.3c3.6,2.1,6.1,4.6,7.7,7.5c1.6,2.8,2.4,6.7,2.4,11.5v60.6
			C761,804.8,754.8,811.1,742.3,811.1z M729.5,632.9h-38.2v59.8h23.5l14.7-10.4V632.9z M730.3,726.9l-15-9.9h-24v68.1h39V726.9z"/>
		<path id="XMLID_20_" class="st2" d="M858.2,811.1l-6.1-38.7h-38.2l-6.1,38.7h-30.2v-0.5l39.5-203.7h32l39.3,203.7v0.5H858.2z
			 M832.9,654.3l-15,92.1h29.9L832.9,654.3z"/>
		<path id="XMLID_25_" class="st2" d="M960.5,634v177h-30.4V634h-33.4v-27h97.5v27H960.5z"/>
		<path id="XMLID_27_" class="st2" d="M1064.6,634v177h-30.4V634h-33.4v-27h97.5v27H1064.6z"/>
		<path id="XMLID_29_" class="st2" d="M1113.8,811.1V607h30.4v176.8h49.7v27.2H1113.8z"/>
		<path id="XMLID_31_" class="st2" d="M1212,811.1V607h83.8v27h-53.4v59.5h45.9V720h-45.9v64.1h54.2v27H1212z"/>
		<path id="XMLID_33_" class="st2" d="M1348,634v60.3h45.1v26.4H1348v90.3h-30.4V607h83.3v27H1348z"/>
		<path id="XMLID_35_" class="st2" d="M1491.4,811.1l-6.1-38.7H1447l-6.1,38.7h-30.2v-0.5l39.5-203.7h32l39.3,203.7v0.5H1491.4z
			 M1466,654.3l-15,92.1h29.9L1466,654.3z"/>
		<path id="XMLID_39_" class="st2" d="M1539.2,811.1V607h30.4v204H1539.2z"/>
		<path id="XMLID_41_" class="st2" d="M1594.7,811.1V607h30.4v176.8h49.7v27.2H1594.7z"/>
		<path id="XMLID_44_" class="st2" d="M1693,811.1V607h83.8v27h-53.4v59.5h45.9V720h-45.9v64.1h54.2v27H1693z"/>
		<path id="XMLID_46_" class="st2" d="M1889.6,800.6c-7,6.9-16.7,10.4-29,10.4h-62.2V607h62.2c12.5,0,22.2,3.5,29.1,10.5
			c6.9,7,10.4,16.4,10.4,28.2v126.8C1900.2,784.4,1896.7,793.7,1889.6,800.6z M1869.5,650.1c0-5.5-1.6-9.8-4.8-12.7
			c-3.2-2.9-7.6-4.4-13.1-4.4h-22.7v152.2h21.9c6.2,0,10.9-1.6,14-4.7c3.1-3.1,4.7-7.4,4.7-12.7V650.1z"/>
	</g>
</g>
<g id="Bar">
</g>
<g id="Moments">
	<g id="XMLID_96_">
		<rect id="XMLID_97_" x="1160.8" y="487.8" class="st3" width="19.3" height="70.2"/>
		<path id="XMLID_115_" class="st3" d="M6.5,455.4v138.1H2560V455.4H6.5z M1135.6,569.9H1122v-46.4c0-0.9,0-1.9,0.1-3.1
			c0-1.1,0.1-2.3,0.3-3.3c0.2-1.2,0.3-2.5,0.5-3.8l-12.2,48h-7.1l-12.2-48c0.1,1.3,0.2,2.6,0.4,3.8c0.2,1.1,0.3,2.2,0.4,3.3
			c0.1,1.1,0.1,2.2,0.1,3.1v46.4h-13.5v-94.1h13.3l14.8,52c0.1,0.2,0.1,0.6,0.1,1c0,0.5,0,0.9,0.1,1.4c0,0.6,0,1.2,0.1,1.8
			c0-0.7,0-1.3,0.1-1.8c0-1,0.1-1.8,0.2-2.5l14.8-52h13.3V569.9z M1194.2,561.3c0,2.8-0.7,4.9-2.2,6.4c-1.5,1.5-3.6,2.2-6.3,2.2
			h-30.5c-5.6,0-8.4-2.9-8.4-8.6v-76.8c0-5.7,2.8-8.6,8.4-8.6h30.5c2.7,0,4.8,0.7,6.3,2.2c1.5,1.5,2.2,3.6,2.2,6.4V561.3z
			 M1262.4,569.9h-13.5v-46.4c0-0.9,0-1.9,0.1-3.1c0-1.1,0.1-2.3,0.3-3.3c0.2-1.2,0.3-2.5,0.5-3.8l-12.2,48h-7.1l-12.2-48
			c0.1,1.3,0.2,2.6,0.4,3.8c0.2,1.1,0.3,2.2,0.4,3.3c0.1,1.1,0.1,2.2,0.1,3.1v46.4h-13.5v-94.1h13.3l14.8,52c0.1,0.2,0.1,0.6,0.1,1
			c0,0.5,0,0.9,0.1,1.4c0,0.6,0,1.2,0.1,1.8c0-0.7,0-1.3,0.1-1.8c0-1,0.1-1.8,0.2-2.5l14.8-52h13.3V569.9z M1312.6,569.9h-39v-94.1
			h38.7v12.4h-24.6v27.5h21.2v12.2h-21.2v29.5h25V569.9z M1369.8,569.9h-12.3l-22.5-59.2c0.1,0.8,0.2,1.6,0.4,2.5
			c0.2,0.7,0.3,1.4,0.4,2.2c0.1,0.8,0.1,1.5,0.1,2.2v52.4h-13.8v-94.1h12.3l22.5,58c-0.2-0.8-0.3-1.6-0.5-2.5
			c-0.2-0.7-0.3-1.4-0.3-2.2c0-0.8-0.1-1.5-0.1-2.2v-51.2h13.8V569.9z M1422,488.3h-15.5v81.6h-14v-81.6h-15.4v-12.4h44.9V488.3z
			 M1474.2,505.5h-14v-17.7H1443v17l28.2,26.6c1.1,1.1,1.9,2.3,2.4,3.3s0.7,2.5,0.7,4.3v22.4c0,2.8-0.7,4.9-2.2,6.4
			c-1.5,1.5-3.6,2.2-6.3,2.2h-28.3c-2.7,0-4.8-0.7-6.3-2.2c-1.5-1.5-2.2-3.6-2.2-6.5v-22.4h14v19.2h17.2v-18.4l-28.2-26.7
			c-1.2-1.1-2-2.1-2.4-3.2s-0.7-2.5-0.7-4.3v-20.9c0-2.8,0.7-4.9,2.2-6.4c1.5-1.5,3.6-2.2,6.3-2.2h28.3c2.7,0,4.8,0.7,6.3,2.2
			c1.5,1.5,2.2,3.6,2.2,6.3V505.5z"/>
	</g>
</g>
<g id="BattleFailed">
	<g id="XMLID_78_">
		<path id="XMLID_125_" class="st3" d="M173.2,418.3H6.4V0.5h165.7c24.8,0,37.2,12.8,37.2,38.3v107.7c0,9.8-1.6,17.5-4.6,23
			c-3.1,5.5-8.3,10.4-15.6,14.8l-25.7,15.9l27.3,17c7.3,4.4,12.6,9.5,15.9,15.3c3.3,5.8,4.9,13.7,4.9,23.5v124.1
			C211.4,405.6,198.7,418.3,173.2,418.3z M146.9,53.6H68.7v122.5h48.1l30.1-21.3V53.6z M148.5,246.1l-30.6-20.2H68.7v139.4h79.8
			V246.1z"/>
		<path id="XMLID_122_" class="st3" d="M410.5,418.3l-12.6-79.3h-78.2l-12.6,79.3h-61.8v-1.1L326.3,0h65.6l80.4,417.3v1.1H410.5z
			 M358.5,97.3L327.9,286h61.2L358.5,97.3z"/>
		<path id="XMLID_120_" class="st3" d="M619.9,55.8v362.6h-62.3V55.8h-68.4V0.5h199.6v55.2H619.9z"/>
		<path id="XMLID_118_" class="st3" d="M833.2,55.8v362.6h-62.3V55.8h-68.4V0.5h199.6v55.2H833.2z"/>
		<path id="XMLID_116_" class="st3" d="M933.8,418.3V0.5h62.3v362h101.7v55.8H933.8z"/>
		<path id="XMLID_79_" class="st3" d="M1135.1,418.3V0.5h171.7v55.2h-109.4v121.9h94.1v54.1h-94.1v131.2h111v55.2H1135.1z"/>
		<path id="XMLID_81_" class="st3" d="M1413.4,55.8v123.6h92.4v54.1h-92.4v184.8h-62.3V0.5h170.6v55.2H1413.4z"/>
		<path id="XMLID_83_" class="st3" d="M1707.1,418.3l-12.6-79.3h-78.2l-12.6,79.3h-61.8v-1.1L1622.9,0h65.6l80.4,417.3v1.1H1707.1z
			 M1655.1,97.3L1624.5,286h61.2L1655.1,97.3z"/>
		<path id="XMLID_86_" class="st3" d="M1805,418.3V0.5h62.3v417.8H1805z"/>
		<path id="XMLID_88_" class="st3" d="M1918.7,418.3V0.5h62.3v362h101.7v55.8H1918.7z"/>
		<path id="XMLID_90_" class="st3" d="M2119.9,418.3V0.5h171.7v55.2h-109.4v121.9h94.1v54.1h-94.1v131.2h111v55.2H2119.9z"/>
		<path id="XMLID_92_" class="st3" d="M2522.7,397c-14.4,14.2-34.2,21.3-59.3,21.3h-127.4V0.5h127.4c25.5,0,45.4,7.2,59.6,21.6
			c14.2,14.4,21.3,33.6,21.3,57.7v259.8C2544.3,363.7,2537.1,382.8,2522.7,397z M2481.4,88.7c0-11.3-3.3-20-9.8-26.1
			s-15.5-9.1-26.8-9.1h-46.5v311.7h44.8c12.8,0,22.3-3.2,28.7-9.6c6.4-6.4,9.6-15.1,9.6-26.1V88.7z"/>
	</g>
</g>
</svg>
